<svg xmlns="http://www.w3.org/2000/svg" xmlns:xlink="http://www.w3.org/1999/xlink" width="17" height="17" viewBox="0 0 17 17">
    <defs>
        <path id="woyl5js53a" d="M0 0L15.316 0 15.316 16 0 16z"/>
    </defs>
    <g fill="none" fill-rule="evenodd">
        <g>
            <g>
                <g transform="translate(-100 -230) translate(100.026 230.59)">
                    <mask id="a7frofj6gb" fill="#fff">
                        <use xlink:href="#woyl5js53a"/>
                    </mask>
                    <path fill="#000" d="M7.662 11.19c2.33.002 4.191-1.848 4.195-4.168.004-2.31-1.87-4.192-4.18-4.198-2.309-.006-4.188 1.868-4.196 4.183-.008 2.317 1.854 4.18 4.18 4.182zM.192 0h14.93v2.826c-.615 0 .657 0 0 0v12.877l-.19.104L13.252 14l-1.927 1.977-1.85-2.06-1.854 2.014-1.806-2.034L3.88 16l-1.904-2.104-1.784 1.916V2.806c-.645 0 .586 0 0 0V0z" mask="url(#a7frofj6gb)"/>
                </g>
                <path fill="#FFF" d="M7.213 4.715c0 .873-.006 1.722.009 2.57.002.105.095.247.187.303.537.326 1.087.631 1.67.965l.454-.803c-.34-.199-.615-.397-.919-.527-.407-.174-.523-.449-.494-.874.038-.546.01-1.096.01-1.634h-.917zm.449 6.474c-2.327-.002-4.189-1.865-4.18-4.182.007-2.315 1.886-4.189 4.194-4.183 2.312.006 4.185 1.887 4.181 4.198-.004 2.32-1.865 4.17-4.195 4.167z" transform="translate(-100 -230) translate(100.026 230.59)"/>
                <path fill="#000" d="M7.213 4.715h.916c0 .538.029 1.088-.01 1.634-.028.425.088.7.495.874.304.13.58.328.92.527l-.454.803c-.584-.334-1.134-.64-1.67-.965-.093-.056-.186-.198-.188-.302-.015-.849-.009-1.698-.009-2.571" transform="translate(-100 -230) translate(100.026 230.59)"/>
            </g>
        </g>
    </g>
</svg>
