<svg xmlns="http://www.w3.org/2000/svg" xmlns:xlink="http://www.w3.org/1999/xlink" width="19" height="20" viewBox="0 0 19 20">
    <defs>
        <path id="n3bon7j47a" d="M0 0L13.269 0 13.269 18.5 0 18.5z"/>
        <path id="4anqigh2gc" d="M0 0L13.269 0 13.269 18.5 0 18.5z"/>
    </defs>
    <g fill="none" fill-rule="evenodd">
        <g>
            <g>
                <g transform="translate(-100 -295) translate(99.999 295.102)">
                    <mask id="jott9deuhb" fill="#fff">
                        <use xlink:href="#n3bon7j47a"/>
                    </mask>
                    <path fill="#FFF" d="M8.239 12.658v-.743c0-2.276-.013-4.551.006-6.826.006-.606-.223-.986-.768-1.248-.896-.43-1.77-.904-2.654-1.359-.33-.17-.66-.337-.99-.505 2.386-.125 4.732-.13 7.078-.12.38.001.518.252.512.614-.01.54-.003 1.081-.003 1.624h1.847c0-1.019.005-1.992-.001-2.965C13.26.318 12.939.003 12.107.002 8.472 0 4.836 0 1.2.002.338.002.006.32.005 1.17 0 5.374.005 9.579 0 13.785c0 .547.217.905.714 1.158 2.188 1.113 4.363 2.251 6.544 3.377.695.358.963.193.967-.598.005-1.05.001-2.102.001-3.189.26-.012.459-.029.657-.03 1.117-.001 2.234-.002 3.351.002.538.001.986-.233 1.001-.768.05-1.719.019-3.44.019-5.176h-1.832c0 1.173-.006 2.307.003 3.44.004.423-.16.657-.601.657H8.239" mask="url(#jott9deuhb)"/>
                </g>
                <g transform="translate(-100 -295) translate(99.999 295.102)">
                    <mask id="dlc129eihd" fill="#fff">
                        <use xlink:href="#4anqigh2gc"/>
                    </mask>
                    <path fill="#000" d="M8.239 12.658h2.585c.44 0 .605-.234.601-.657-.009-1.133-.003-2.267-.003-3.44h1.832c0 1.736.03 3.457-.019 5.176-.015.535-.463.77-1 .768-1.118-.004-2.235-.003-3.352-.001-.198 0-.396.017-.657.03 0 1.086.004 2.137-.001 3.188-.004.791-.272.956-.967.598-2.181-1.126-4.356-2.264-6.544-3.377-.497-.253-.715-.61-.714-1.158.006-4.206 0-8.411.005-12.616C.005.319.338.003 1.2.002 4.836 0 8.472 0 12.107.002c.832 0 1.153.316 1.159 1.128.006.973.001 1.946.001 2.965H11.42c0-.543-.006-1.084.003-1.624.006-.362-.133-.613-.512-.614-2.346-.01-4.692-.005-7.079.12.33.168.662.336.991.505.884.455 1.758.93 2.654 1.36.545.26.774.641.768 1.247-.019 2.275-.007 4.55-.006 6.826v.743" mask="url(#dlc129eihd)"/>
                </g>
                <path fill="#000" d="M14.19 8.816c.364-.375 1.033-1.077 1.485-1.522-.313.002-.501 0-.67 0-1.442-.003-3.844.003-5.286-.003l-.016-2.035c1.421-.005 3.803-.001 5.224-.001h.78l-.134-.133c-.374-.359-1.017-.954-1.383-1.32l1.275-1.347c.956.94 2.17 2.126 3.109 3.082.506.515.51.978.012 1.486-.937.957-2.122 2.197-3.076 3.138l-1.32-1.345z" transform="translate(-100 -295) translate(99.999 295.102)"/>
            </g>
        </g>
    </g>
</svg>
